<?xml version="1.0" standalone="no"?>
<!DOCTYPE svg PUBLIC "-//W3C//DTD SVG 20010904//EN"
 "http://www.w3.org/TR/2001/REC-SVG-20010904/DTD/svg10.dtd">
<svg version="1.0" xmlns="http://www.w3.org/2000/svg"
 width="1280.000000pt" height="815.000000pt" viewBox="0 0 1280.000000 815.000000"
 preserveAspectRatio="xMidYMid meet">
<metadata>
Created by potrace 1.15, written by Peter Selinger 2001-2017
</metadata>
<g transform="translate(0.000000,815.000000) scale(0.100000,-0.100000)"
fill="#ffc107" stroke="none">
<path d="M6435 8127 c-268 -100 -1105 -625 -2625 -1647 -498 -335 -589 -392
-1055 -660 -1457 -837 -2225 -1304 -2570 -1562 -105 -79 -185 -158 -185 -182
0 -41 185 -188 493 -390 447 -294 1070 -668 2212 -1326 518 -299 601 -351
1105 -689 1389 -935 2143 -1413 2515 -1597 133 -65 201 -86 216 -64 9 15 23
62 34 112 l5 27 128 -64 c70 -36 149 -70 175 -77 44 -11 50 -11 62 5 54 74 75
655 56 1567 -6 311 -14 629 -17 708 l-6 142 2853 0 c1972 0 2866 3 2892 11 26
7 44 21 58 42 19 31 19 61 17 1605 l-3 1574 -33 29 -32 29 -2876 0 -2876 0 6
143 c3 78 11 399 17 712 19 914 -2 1488 -56 1562 -12 16 -18 16 -62 5 -26 -7
-105 -41 -175 -76 -131 -67 -138 -68 -138 -15 0 10 -7 37 -16 59 -19 47 -32
49 -119 17z"/>
</g>
</svg>
