<?xml version="1.0" encoding="utf-8"?>
<!-- Generator: Adobe Illustrator 26.2.1, SVG Export Plug-In . SVG Version: 6.00 Build 0)  -->
<svg version="1.1" id="Calque_1" xmlns="http://www.w3.org/2000/svg" xmlns:xlink="http://www.w3.org/1999/xlink" x="0px" y="0px"
	 viewBox="0 0 1280 815" style="enable-background:new 0 0 1280 815;" xml:space="preserve">
<style type="text/css">
	.st0{fill:#FFC107;}
</style>
<g transform="translate(0.000000,815.000000) scale(0.100000,-0.100000)">
	<path class="st0" d="M6363.9,23c268,100,1105,625,2625,1647c498,335,589,392,1055,660c1457,837,2225,1304,2570,1562
		c105,79,185,158,185,182c0,41-185,188-493,390c-447,294-1070,668-2212,1326c-518,299-601,351-1105,689
		c-1389,935-2143,1413-2515,1597c-133,65-201,86-216,64c-9-15-23-62-34-112l-5-27l-128,64c-70,36-149,70-175,77c-44,11-50,11-62-5
		c-54-74-75-655-56-1567c6-311,14-629,17-708l6-142h-2853c-1972,0-2866-3-2892-11c-26-7-44-21-58-42c-19-31-19-61-17-1605l3-1574
		l33-29l32-29h2876h2876l-6-143c-3-78-11-399-17-712c-19-914,2-1488,56-1562c12-16,18-16,62-5c26,7,105,41,175,76
		c131,67,138,68,138,15c0-10,7-37,16-59C6263.9-7,6276.9-9,6363.9,23z"/>
</g>
</svg>
